<?xml version="1.0" standalone="no"?>
<!DOCTYPE svg PUBLIC "-//W3C//DTD SVG 20010904//EN"
 "http://www.w3.org/TR/2001/REC-SVG-20010904/DTD/svg10.dtd">
<svg version="1.0" xmlns="http://www.w3.org/2000/svg"
 width="400.000000pt" height="400.000000pt" viewBox="0 0 400.000000 400.000000"
 preserveAspectRatio="xMidYMid meet">
<metadata>
Created by potrace 1.11, written by Peter Selinger 2001-2013
</metadata>
<g transform="translate(0.000000,400.000000) scale(0.100000,-0.100000)"
fill="#000000" stroke="none">
<path d="M2321 3448 l-74 -10 99 -52 c120 -63 215 -126 243 -162 63 -80 -30
-174 -171 -174 -86 0 -164 25 -346 110 -81 38 -174 76 -207 85 -204 52 -335
-28 -441 -272 -18 -43 -32 -79 -30 -80 2 -2 32 3 67 11 266 60 450 -8 505
-188 24 -82 29 -182 10 -253 -29 -116 -90 -181 -189 -203 -91 -20 -169 9 -322
119 -55 40 -148 96 -206 125 -205 103 -328 95 -391 -27 -19 -36 -23 -65 -28
-212 -6 -150 -9 -175 -29 -215 -13 -25 -33 -56 -45 -68 -55 -61 -160 -85 -305
-71 -51 6 -95 8 -97 6 -11 -10 130 -128 187 -156 52 -26 74 -31 134 -31 108 0
170 35 282 157 96 104 116 118 185 128 194 29 443 -222 414 -418 -18 -116
-141 -220 -289 -242 -26 -4 -47 -11 -47 -15 0 -14 87 -88 127 -108 67 -35 153
-46 306 -39 118 5 164 12 275 42 198 53 265 61 343 41 143 -37 174 -139 83
-273 -44 -64 -118 -116 -211 -148 -75 -27 -216 -44 -298 -38 l-50 4 75 -37
c512 -247 956 -224 1274 67 448 409 550 1365 216 2017 -154 302 -371 491 -645
563 -95 24 -292 33 -404 17z m595 -950 c-12 -72 -36 -249 -36 -263 0 -12 14
-15 64 -15 l64 0 10 73 c6 39 16 109 22 155 l12 82 75 0 74 0 -6 -32 c-3 -18
-14 -88 -24 -155 l-18 -123 73 0 74 0 0 -70 0 -70 -84 0 -83 0 -7 -46 c-11
-86 -14 -83 62 -86 l67 -3 0 -70 0 -70 -82 -3 c-46 -2 -83 -5 -83 -7 0 -11
-41 -283 -45 -302 -5 -21 -11 -23 -75 -23 -82 0 -78 -15 -50 160 29 182 32
170 -43 170 l-64 0 -22 -147 c-11 -82 -21 -156 -21 -165 0 -16 -10 -18 -75
-18 -41 0 -75 3 -75 6 0 10 40 279 45 302 5 21 3 22 -75 22 l-80 0 0 75 0 75
89 0 89 0 6 28 c3 15 8 44 12 65 l6 37 -81 0 -81 0 0 70 0 70 89 0 89 0 6 28
c3 15 13 79 22 142 8 63 17 121 20 128 2 8 26 12 74 12 l71 0 -5 -32z"/>
<path d="M2846 2034 c-11 -87 -13 -84 58 -84 l63 0 7 38 c3 20 6 49 6 65 0 27
-1 27 -64 27 l-63 0 -7 -46z"/>
</g>
</svg>
