<?xml version="1.0" standalone="no"?>
<!DOCTYPE svg PUBLIC "-//W3C//DTD SVG 20010904//EN"
 "http://www.w3.org/TR/2001/REC-SVG-20010904/DTD/svg10.dtd">
<svg version="1.0" xmlns="http://www.w3.org/2000/svg"
 width="260.000000pt" height="260.000000pt" viewBox="0 0 260.000000 260.000000"
 preserveAspectRatio="xMidYMid meet">
<metadata>
Created by potrace 1.11, written by Peter Selinger 2001-2013
</metadata>
<g transform="translate(0.000000,260.000000) scale(0.100000,-0.100000)"
fill="#000000" stroke="none">
<path d="M1717 2364 c-1 -1 -38 -4 -82 -8 -43 -4 -81 -9 -83 -11 -2 -2 18 -15
46 -28 111 -54 199 -117 213 -154 19 -52 -62 -114 -141 -108 -66 5 -105 17
-247 82 -219 99 -308 100 -399 5 -40 -42 -121 -188 -110 -199 2 -3 30 0 60 7
235 49 374 -42 378 -246 1 -83 -17 -138 -60 -183 -41 -43 -89 -61 -147 -54
-46 5 -79 21 -175 88 -250 173 -390 195 -450 71 -18 -38 -22 -65 -23 -163 -3
-143 -18 -182 -91 -227 -42 -27 -55 -29 -126 -29 -44 1 -94 4 -111 8 -41 9
-32 -8 38 -67 91 -77 186 -96 275 -54 39 19 116 89 143 130 9 14 34 34 56 44
77 38 180 10 264 -74 56 -54 85 -112 92 -180 5 -45 2 -59 -20 -97 -33 -55
-101 -102 -173 -118 -30 -7 -54 -16 -54 -20 0 -19 90 -79 142 -94 81 -23 230
-18 350 12 169 42 237 51 293 37 89 -23 118 -89 76 -173 -54 -106 -201 -171
-373 -166 l-63 2 75 -35 c334 -155 624 -159 845 -10 140 93 232 218 315 428
20 50 67 243 69 280 0 8 2 31 5 50 6 47 7 265 1 315 -15 117 -30 199 -52 270
-121 399 -354 628 -676 663 -42 5 -78 7 -80 6z"/>
</g>
</svg>
